<svg viewBox="0 0 22 28" fill="none" xmlns="http://www.w3.org/2000/svg"><path d="M20.22 1.1A3.58 3.58 0 0017.656 0H4.345A3.621 3.621 0 001.78 1.071 3.672 3.672 0 00.708 3.637v20.726a3.62 3.62 0 001.072 2.566A3.672 3.672 0 004.346 28h13.309a3.621 3.621 0 002.566-1.072 3.672 3.672 0 001.071-2.566V3.666A3.621 3.621 0 0020.221 1.1zm-.337 23.263c0 .62-.254 1.156-.649 1.579a2.237 2.237 0 01-1.58.648H4.347c-.62 0-1.156-.254-1.58-.648a2.238 2.238 0 01-.648-1.58V3.666c0-.62.254-1.156.649-1.58a2.238 2.238 0 011.579-.648h13.309c.62 0 1.156.254 1.579.649.395.394.648.958.648 1.579v20.697z" fill="#fff"/><path d="M11 19.459a.733.733 0 100-1.467.733.733 0 000 1.466z" fill="#fff"/><path d="M11.001 12.04a6.815 6.815 0 00-4.737 1.945 6.645 6.645 0 00-1.946 4.737c0 1.833.762 3.525 1.946 4.737A6.645 6.645 0 0011 25.405a6.815 6.815 0 004.737-1.946 6.645 6.645 0 001.946-4.737 6.815 6.815 0 00-1.946-4.737A6.815 6.815 0 0011 12.04zm3.722 10.404a5.218 5.218 0 01-3.722 1.551 5.218 5.218 0 01-3.722-1.55 5.218 5.218 0 01-1.55-3.723c0-1.466.591-2.763 1.55-3.722a5.218 5.218 0 013.722-1.55A5.27 5.27 0 0114.723 15a5.218 5.218 0 011.551 3.722c-.028 1.438-.592 2.764-1.55 3.722z" fill="#fff"/><path d="M11 14.89c-1.071 0-2.03.424-2.707 1.128a3.817 3.817 0 00-1.128 2.707c0 1.072.423 2.03 1.128 2.707A3.817 3.817 0 0011 22.56c1.072 0 2.03-.423 2.707-1.128a3.817 3.817 0 001.128-2.706c0-1.072-.423-2.03-1.128-2.707-.677-.705-1.635-1.128-2.707-1.128zm1.72 5.555a2.383 2.383 0 01-1.72.705c-.677 0-1.269-.281-1.72-.704a2.384 2.384 0 01-.705-1.72c0-.677.282-1.27.705-1.72A2.384 2.384 0 0111 16.3c.677 0 1.27.282 1.72.705.451.452.705 1.044.705 1.72 0 .677-.282 1.27-.705 1.72zM11 11.222c1.184 0 2.255-.48 3.045-1.27a4.284 4.284 0 001.269-3.044c0-1.185-.48-2.256-1.27-3.046A4.284 4.284 0 0011 2.593c-1.185 0-2.256.48-3.046 1.27a4.284 4.284 0 00-1.269 3.045c0 1.184.48 2.255 1.27 3.045A4.284 4.284 0 0011 11.222zM8.97 4.877A2.902 2.902 0 0111 4.031c.79 0 1.522.31 2.03.846.507.508.846 1.241.846 2.03 0 .79-.31 1.523-.846 2.03a2.901 2.901 0 01-2.03.847c-.79 0-1.523-.31-2.03-.846a2.902 2.902 0 01-.847-2.03c0-.79.31-1.495.846-2.03z" fill="#fff"/><path d="M11 8.572c.451 0 .846-.198 1.156-.48.31-.31.48-.705.48-1.156 0-.45-.198-.846-.48-1.156-.31-.31-.705-.48-1.156-.48-.451 0-.846.198-1.156.48-.31.31-.48.705-.48 1.156 0 .451.17.846.48 1.156.31.31.705.48 1.156.48zm-.338-1.974A.467.467 0 0111 6.457c.113 0 .254.056.31.14a.453.453 0 01.141.311c0 .141-.056.254-.14.31A.453.453 0 0111 7.36c-.141 0-.254-.056-.31-.14a.453.453 0 01-.141-.311c0-.113.056-.226.113-.31z" fill="#fff"/></svg>