<svg viewBox="0 0 24 24" fill="none" xmlns="http://www.w3.org/2000/svg"><g clip-path="url(#clip0)"><path d="M24 12c0-.57-.303-1.09-.81-1.392l-1.337-.786 1.337-.795c.508-.303.81-.822.81-1.39 0-.57-.303-1.09-.81-1.392-1.67-.994-7.335-4.36-10.127-5.96-.647-.372-1.433-.387-2.132.003 0 0-7.593 4.46-10.12 5.956A1.615 1.615 0 000 7.636c0 .568.303 1.088.81 1.392l1.337.794-1.336.786A1.615 1.615 0 000 12c0 .568.303 1.088.81 1.391.363.217.822.49 1.337.795l-1.336.786A1.613 1.613 0 000 16.364c0 .568.303 1.088.81 1.391 2.161 1.286 7.474 4.44 10.127 5.96.325.187.693.286 1.063.286s.738-.099 1.064-.286c2.652-1.52 7.965-4.674 10.126-5.96.508-.303.81-.823.81-1.391 0-.57-.302-1.09-.81-1.392l-1.337-.786 1.337-.795c.508-.303.81-.823.81-1.391zM1.368 8.091c-.083-.05-.277-.194-.277-.454 0-.262.193-.404.276-.453a4900.347 4900.347 0 0110.106-5.948 1.036 1.036 0 011.048-.004c2.785 1.597 8.444 4.959 10.111 5.95.083.05.277.195.277.455s-.194.404-.277.454c-2.158 1.284-7.465 4.434-10.11 5.95a1.04 1.04 0 01-1.043 0c-2.646-1.516-7.953-4.666-10.111-5.95zm21.265 7.82c.083.049.276.192.276.453 0 .26-.194.405-.277.454-2.158 1.284-7.465 4.435-10.11 5.95a1.04 1.04 0 01-1.043.001c-2.646-1.516-7.953-4.667-10.111-5.95-.083-.05-.277-.194-.277-.455s.193-.404.276-.453l1.85-1.09a759.435 759.435 0 007.72 4.531c.325.186.693.285 1.063.285s.738-.099 1.064-.285a756.414 756.414 0 007.718-4.53l1.851 1.089zm0-3.457c-2.16 1.284-7.466 4.435-10.111 5.951a1.04 1.04 0 01-1.043 0c-2.646-1.516-7.953-4.667-10.111-5.95-.083-.05-.277-.194-.277-.454 0-.262.193-.405.276-.454l1.85-1.089a759.435 759.435 0 007.72 4.53 2.136 2.136 0 002.127 0 756.414 756.414 0 007.718-4.53l1.851 1.09a.531.531 0 01.276.453c0 .26-.194.404-.277.454z" fill="#2B2D3A"/></g><defs><clipPath id="clip0"><path fill="#fff" d="M0 0h24v24H0z"/></clipPath></defs></svg>