<svg viewBox="0 0 24 24" fill="none" xmlns="http://www.w3.org/2000/svg"><g clip-path="url(#clip0)"><path d="M23.4 10.392l-.002-.002L13.608.6a2.194 2.194 0 00-1.562-.647A2.2 2.2 0 0010.483.6L.698 10.385a2.212 2.212 0 00-.006 3.13 2.197 2.197 0 001.535.648h.39v7.204a2.589 2.589 0 002.586 2.586h3.83a.703.703 0 00.703-.703v-5.648c0-.651.53-1.18 1.18-1.18h2.26c.65 0 1.179.529 1.179 1.18v5.648c0 .388.315.703.703.703h3.83a2.589 2.589 0 002.586-2.586v-7.204h.362a2.213 2.213 0 001.564-3.77zm-.996 2.13a.798.798 0 01-.568.235h-1.065a.703.703 0 00-.703.703v7.907c0 .65-.53 1.18-1.18 1.18h-3.127v-4.945a2.589 2.589 0 00-2.586-2.586h-2.259a2.59 2.59 0 00-2.586 2.586v4.945H5.203c-.65 0-1.18-.53-1.18-1.18V13.46a.703.703 0 00-.703-.703H2.273a.797.797 0 01-.586-.236.804.804 0 010-1.136h.001l9.79-9.79a.797.797 0 01.568-.236c.214 0 .416.084.568.236l9.787 9.787.005.004a.805.805 0 01-.002 1.135z" fill="#397DFF"/></g><defs><clipPath id="clip0"><path fill="#fff" d="M0 0h24v24H0z"/></clipPath></defs></svg>