<svg viewBox="0 0 154 50" fill="none" xmlns="http://www.w3.org/2000/svg"><path d="M145.172 30.77H3.924A3.924 3.924 0 000 34.692v7.537a3.924 3.924 0 003.924 3.924h141.248a3.924 3.924 0 003.924-3.924v-7.537a3.924 3.924 0 00-3.924-3.924z" fill="#2D3786"/><path d="M33.35 3.37h-.298v19.912h8.665c2.82 0 4.779-.631 6.004-2.34 1.202-1.676 1.644-4.326 1.644-8.208 0-3.356-.462-5.712-1.647-7.225-1.201-1.536-3.089-2.137-5.746-2.137H33.35zm4.15 4.164h4.217c1.32 0 2.03.202 2.468.921.234.382.406.934.518 1.737.112.802.16 1.83.16 3.153 0 1.315-.057 2.336-.19 3.13-.131.795-.334 1.34-.61 1.716-.53.73-1.406.937-2.99.937H37.5V7.534zm18.745 7.188v-.298H51.96v2.3c0 2.363.392 4.052 1.423 5.14 1.035 1.094 2.645 1.511 4.89 1.511 2.263 0 3.915-.448 4.993-1.547 1.076-1.097 1.514-2.778 1.514-5.082V2.587h-4.518V16.77c0 .528-.026.936-.09 1.254-.063.317-.159.524-.282.666-.244.28-.685.41-1.616.41-1.036 0-1.478-.142-1.705-.418-.117-.141-.202-.347-.255-.665-.053-.319-.07-.724-.07-1.247v-2.048zm19.429-3.96h0c-1.01-.063-1.753-.139-2.303-.241-.555-.104-.882-.23-1.082-.373-.182-.132-.275-.291-.325-.524-.055-.253-.056-.57-.056-1.014 0-.575.069-1.038.43-1.378.374-.35 1.128-.636 2.683-.636.682 0 1.212.028 1.625.1.413.071.685.183.872.333.361.29.51.811.51 1.919V9.5h4.383V8.206c0-2.281-.746-3.724-2.11-4.57-1.33-.826-3.195-1.05-5.349-1.05-2.509 0-4.409.457-5.685 1.458-1.291 1.012-1.89 2.54-1.89 4.548 0 2.362.65 3.895 1.93 4.862 1.253.947 3.057 1.305 5.249 1.47.862.065 1.543.137 2.08.235.538.098.912.218 1.174.366.251.143.4.312.491.528.097.226.14.523.14.933 0 .857-.136 1.357-.55 1.678-.445.344-1.28.543-2.87.543-.791 0-1.393-.012-1.858-.072-.465-.06-.753-.165-.944-.318-.182-.148-.313-.37-.396-.755-.084-.391-.113-.918-.113-1.64v-.552h-4.332v1.324c0 2.784.857 4.375 2.312 5.238 1.414.838 3.332.943 5.332.943 3.184 0 5.164-.539 6.334-1.699 1.174-1.163 1.46-2.879 1.46-5.014 0-2.216-.652-3.653-1.928-4.553-1.246-.879-3.038-1.204-5.214-1.347zm9.366-3.964v.298h5.354v15.987h4.603V7.095h5.352V2.879H85.04v3.918zm25.679-4.211c-3.096 0-5.184.519-6.466 2.103-1.265 1.562-1.68 4.085-1.68 7.885 0 2.188.082 3.956.312 5.374.229 1.418.61 2.51 1.223 3.331 1.242 1.662 3.348 2.095 6.611 2.095 3.174 0 5.276-.512 6.544-2.205.627-.837 1.03-1.936 1.278-3.342.248-1.405.345-3.137.345-5.253 0-3.758-.436-6.28-1.712-7.852-1.294-1.593-3.384-2.136-6.455-2.136zm0 16.553c-.84 0-1.466-.029-1.946-.153-.464-.12-.775-.325-1.004-.681-.239-.373-.405-.937-.506-1.81-.1-.87-.134-2.01-.134-3.513 0-1.562.038-2.731.145-3.61.107-.884.279-1.437.521-1.793.229-.339.539-.525 1.001-.629.48-.107 1.098-.121 1.923-.121.81 0 1.422.015 1.901.124.462.105.776.293 1.011.635.246.358.424.912.536 1.794.112.877.155 2.044.155 3.6 0 1.492-.037 2.628-.142 3.494-.105.87-.275 1.436-.519 1.813-.233.36-.549.569-1.012.691-.479.127-1.101.159-1.93.159zm11.06-15.77h-.298v19.912h4.478v-6.306h4.148c.807 0 1.31.162 1.616.446.301.28.47.736.47 1.475v4.385h4.489V18.59c0-1.047-.19-1.923-.594-2.602a2.974 2.974 0 00-1.175-1.121c.789-.477 1.277-1.19 1.572-1.991.361-.984.436-2.11.436-3.126 0-2.139-.468-3.752-1.523-4.826-1.057-1.075-2.645-1.552-4.75-1.552h-8.869zm4.18 4.164h4.284c.916 0 1.408.173 1.697.526.305.373.453 1.023.453 2.166 0 1.02-.18 1.651-.519 2.031-.331.37-.872.567-1.767.567h-4.148v-5.29zm26.079-.077h.298V3.371h-12.82V23.28h12.82V19.2h-8.439v-3.959h8.049V11.16h-8.049V7.457h8.141z" fill="#3F476B" stroke="#3F476B" stroke-width=".596" stroke-miterlimit="10"/><path d="M27.465 13.461c0 7.435-6.15 13.462-13.735 13.462C6.148 26.923 0 20.896 0 13.462 0 6.026 6.148 0 13.73 0c7.585 0 13.735 6.027 13.735 13.461z" fill="#397DFF"/><path d="M21.578 18.895c.004.71-.642 1.29-1.425 1.29l-12.833.007c-.787 0-1.43-.58-1.43-1.287l-.005-.656c0-.707.646-1.288 1.431-1.288l12.833-.005c.787 0 1.43.58 1.43 1.287v.652h-.001zM20.05 14.99c.785 0 1.079-.486.654-1.083l-6.203-8.65c-.426-.597-1.123-.597-1.55 0l-6.19 8.654c-.427.596-.136 1.082.656 1.082l12.633-.004z" fill="#fff"/><path d="M148.115 34.615H8.828a3.924 3.924 0 00-3.924 3.924v7.537A3.924 3.924 0 008.828 50h139.287a3.923 3.923 0 003.923-3.924V38.54a3.923 3.923 0 00-3.923-3.924z" fill="#397DFF"/><path d="M37.362 39.389h.971v5.296l4.061-5.296h.903v6.866h-.962v-5.287l-4.07 5.287h-.903v-6.866zm14.078 0v6.866h-.98v-3.06h-3.944v3.06h-.98v-6.866h.98v2.952h3.943V39.39h.981zm5.31 6.944a3.86 3.86 0 01-1.864-.45 3.413 3.413 0 01-1.294-1.256 3.506 3.506 0 01-.471-1.805c0-.667.157-1.266.47-1.795a3.302 3.302 0 011.305-1.256 3.787 3.787 0 011.864-.46c.536 0 1.026.09 1.471.274.445.176.824.441 1.138.794l-.638.618c-.516-.542-1.16-.814-1.932-.814-.51 0-.971.115-1.383.343a2.514 2.514 0 00-.971.952 2.651 2.651 0 00-.343 1.344c0 .497.114.948.343 1.353.235.4.559.713.971.942a2.8 2.8 0 001.383.343c.765 0 1.41-.274 1.932-.824l.638.618a3.044 3.044 0 01-1.148.805 3.828 3.828 0 01-1.471.274zm8.71-6.091h-2.354v6.013h-.962v-6.013H59.8v-.853h5.66v.853zm5.408 4.296H67.22l-.756 1.717h-1.01l3.11-6.866h.97l3.12 6.866h-1.03l-.756-1.717zm-.343-.784l-1.481-3.365-1.481 3.365h2.962zm9.051-4.365v6.866h-.961v-6.013h-3.04l-.07 2.01c-.032.95-.11 1.717-.235 2.306-.118.589-.307 1.033-.569 1.334-.261.294-.614.441-1.06.441-.202 0-.408-.026-.617-.078l.069-.873c.104.026.209.04.313.04a.81.81 0 00.677-.334c.17-.23.298-.57.383-1.02.085-.452.14-1.047.166-1.786l.108-2.893h4.836zm7.762 0v6.866h-.962v-6.013h-3.04l-.07 2.01c-.032.95-.11 1.717-.235 2.306-.117.589-.307 1.033-.569 1.334-.261.294-.614.441-1.059.441-.203 0-.409-.026-.618-.078l.069-.873c.104.026.21.04.314.04a.81.81 0 00.676-.334c.17-.23.298-.57.383-1.02.085-.452.14-1.047.167-1.786l.108-2.893h4.836zm7.268 0v6.866h-.961v-2.001h-1.893c-.118 0-.206-.003-.265-.01l-1.373 2.01h-1.04l1.52-2.177c-.49-.163-.866-.434-1.128-.814-.261-.386-.392-.853-.392-1.402 0-.779.249-1.384.746-1.815.503-.438 1.18-.657 2.03-.657h2.756zm-4.541 2.462c0 .51.147.902.441 1.177.301.268.742.402 1.324.402h1.815v-3.188h-1.756c-.588 0-1.04.137-1.353.412-.314.275-.471.674-.471 1.197zm13.609 3.55v2.413h-.912v-1.56h-5.915V39.39h.971v6.01h3.826v-6.01h.971v6.01h1.059zm1.404-6.012h.971v5.296l4.061-5.296h.902v6.866h-.961v-5.287l-4.071 5.287h-.902v-6.866zm8.173 0h.971v5.296l4.061-5.296h.902v6.866h-.961v-5.287l-4.071 5.287h-.902v-6.866z" fill="#fff"/></svg>