<svg viewBox="0 0 24 24" fill="none" xmlns="http://www.w3.org/2000/svg"><path d="M13.714 22.714h-3.428c-.8 0-1.715-.685-1.715-2.057v-2.4c0-1.143-.571-2.171-1.485-2.971C5.029 13.686 4 11.4 4 8.886 4.114 4.543 7.657 1.114 11.886 1c2.171 0 4.228.8 5.714 2.286C19.086 4.77 20 6.829 20 9c0 2.4-1.029 4.686-2.971 6.171-1.029.8-1.6 2.058-1.6 3.2V21c0 .914-.8 1.714-1.715 1.714zM12 2.143c-3.657 0-6.743 3.086-6.857 6.743 0 2.171.914 4.228 2.628 5.486 1.258 1.028 1.943 2.4 1.943 3.885v2.4c0 .229 0 .915.572.915h3.428c.343 0 .572-.23.572-.572v-2.628c0-1.486.8-3.086 2.057-4.115 1.6-1.257 2.514-3.2 2.514-5.257 0-1.829-.686-3.543-2.057-4.914-1.257-1.257-2.971-1.943-4.8-1.943z" fill="#2B2D3A"/><path d="M14.857 19.286H9.143c-.343 0-.572-.229-.572-.572 0-.342.229-.571.572-.571h5.714c.343 0 .572.229.572.571 0 .343-.229.572-.572.572z" fill="#2B2D3A"/></svg>