<svg viewBox="0 0 24 24" fill="none" xmlns="http://www.w3.org/2000/svg"><path d="M16.122 4.122A7.803 7.803 0 0012 5.289a7.803 7.803 0 00-4.122-1.167C3.533 4.122 0 7.655 0 12c0 4.345 3.533 7.878 7.878 7.878A7.803 7.803 0 0012 18.711a7.803 7.803 0 004.122 1.167C20.467 19.878 24 16.345 24 12c0-4.345-3.533-7.878-7.878-7.878zm-8.244 14.7a6.823 6.823 0 01-6.822-6.817 6.827 6.827 0 016.822-6.822c1.109 0 2.202.265 3.178.785a7.873 7.873 0 000 12.064c-.976.52-2.07.79-3.178.79zM12 17.427a6.816 6.816 0 010-10.86 6.816 6.816 0 010 10.86zm4.122 1.39a6.757 6.757 0 01-3.178-.785 7.873 7.873 0 000-12.064 6.71 6.71 0 013.178-.785 6.82 6.82 0 016.817 6.822 6.807 6.807 0 01-6.817 6.812z" fill="#2B2D3A"/></svg>